{"accessors":[{"bufferView":0,"byteOffset":0,"componentType":5126,"count":327,"max":[0.510798335075378,0.0500000007450581,1],"min":[-0.51079833507538,-0.05000000074506,-1.00600969791412],"normalized":false,"type":"VEC3"},{"bufferView":1,"byteOffset":0,"componentType":5126,"count":327,"max":[0.258969932794571,0.0000560643129574601,0.25874075293541,-1],"min":[-1,-1,-1,-1],"normalized":false,"type":"VEC4"},{"bufferView":2,"byteOffset":0,"componentType":5126,"count":327,"max":[1,1,1],"min":[-1,-1,-1],"normalized":false,"type":"VEC3"},{"bufferView":3,"byteOffset":0,"componentType":5126,"count":327,"max":[1,1],"min":[0,0],"normalized":false,"type":"VEC2"},{"bufferView":4,"byteOffset":0,"componentType":5123,"count":327,"max":[326],"min":[0],"normalized":false,"type":"SCALAR"}],"asset":{"generator":"Godot Engine v4.3.stable.steam@77dcf97d82cbfe4e4615475fa52ca03da645dbd8","version":"2.0"},"bufferViews":[{"buffer":0,"byteLength":3924,"byteOffset":0,"byteStride":12,"target":34962},{"buffer":0,"byteLength":5232,"byteOffset":3924,"byteStride":16,"target":34962},{"buffer":0,"byteLength":3924,"byteOffset":9156,"byteStride":12,"target":34962},{"buffer":0,"byteLength":2616,"byteOffset":13080,"byteStride":8,"target":34962},{"buffer":0,"byteLength":654,"byteOffset":15696,"target":34963}],"buffers":[{"byteLength":16352,"uri":"player0.bin"}],"cameras":[{"perspective":{"yfov":1.30899691581726,"zfar":4000,"znear":0.0500000007450581},"type":"perspective"}],"extensions":{"OMI_physics_shape":{"shapes":[{"box":{"size":[1.0686000585556,0.149048000574112,1.99713003635406]},"type":"box"}]}},"extensionsUsed":["GODOT_single_root","OMI_physics_body","OMI_physics_shape"],"materials":[{"extensions":{},"pbrMetallicRoughness":{"baseColorFactor":[0.99999988079071,0.99999988079071,0.99999988079071,1],"metallicFactor":0,"roughnessFactor":1}}],"meshes":[{"extras":{"targetNames":[]},"primitives":[{"attributes":{"NORMAL":2,"POSITION":0,"TANGENT":1,"TEXCOORD_0":3},"indices":4,"material":0,"mode":4}]}],"nodes":[{"children":[1,2,6,8],"extensions":{"OMI_physics_body":{"motion":{"type":"kinematic"}}},"name":"Player"},{"extensions":{"OMI_physics_body":{"collider":{"shape":0}}},"name":"CollisionShape3D","translation":[-0.00622559012845,0.00311278994195163,0.0162048004567623]},{"children":[3,4,5],"mesh":0,"name":"MeshInstance2"},{"name":"CSGBox3D"},{"name":"CSGBox3D2","rotation":[0,0.130526155233383,0,0.991444885730743],"translation":[0.25,0,-0.20000000298023]},{"name":"CSGBox3D3","rotation":[0,-0.13052615523338,0,0.991444885730743],"translation":[-0.25,0,-0.20000000298023]},{"children":[7],"name":"SpringArm3D","rotation":[-0.57357650995255,0,0,0.819151997566223]},{"camera":0,"name":"Camera3D","translation":[0,0,10]},{"name":"BulletSpawn","translation":[0,0,-1.12760996818542]}],"scene":0,"scenes":[{"nodes":[0]}]}